<?xml version="1.0" encoding="UTF-8" standalone="no"?>
<!-- Created with Inkscape (http://www.inkscape.org/) -->

<svg
   version="1.1"
   id="svg97"
   xml:space="preserve"
   width="365.44666"
   height="57.765331"
   viewBox="0 0 365.44664 57.765331"
   sodipodi:docname="alexey-signature.svg"
   inkscape:version="1.1.1 (3bf5ae0d25, 2021-09-20)"
   inkscape:export-filename="signature.png"
   inkscape:export-xdpi="499.89999"
   inkscape:export-ydpi="499.89999"
   xmlns:inkscape="http://www.inkscape.org/namespaces/inkscape"
   xmlns:sodipodi="http://sodipodi.sourceforge.net/DTD/sodipodi-0.dtd"
   xmlns="http://www.w3.org/2000/svg"
   xmlns:svg="http://www.w3.org/2000/svg"><defs
     id="defs101"><linearGradient
       id="linearGradient1224"
       inkscape:swatch="solid"><stop
         style="stop-color:#ffffff;stop-opacity:1;"
         offset="0"
         id="stop1222" /></linearGradient><clipPath
       clipPathUnits="userSpaceOnUse"
       id="clipPath117"><path
         d="m 184.692,323.82 h 460.984 v 9.117 H 184.692 Z"
         id="path115" /></clipPath><clipPath
       clipPathUnits="userSpaceOnUse"
       id="clipPath133"><path
         d="m 227.218,339.45 h 19.918 v 24.601 h -19.918 z"
         id="path131" /></clipPath><clipPath
       clipPathUnits="userSpaceOnUse"
       id="clipPath149"><path
         d="m 234.621,348.82 h 12.265 v 4.755 h -12.265 z"
         id="path147" /></clipPath><clipPath
       clipPathUnits="userSpaceOnUse"
       id="clipPath165"><path
         d="m 251.36,342.561 h 9.618 v 22.709 h -9.618 z"
         id="path163" /></clipPath><clipPath
       clipPathUnits="userSpaceOnUse"
       id="clipPath181"><path
         d="m 265.13,341.703 h 9.26 v 22.28 h -9.26 z"
         id="path179" /></clipPath><clipPath
       clipPathUnits="userSpaceOnUse"
       id="clipPath197"><path
         d="m 267.704,348.927 h 9.583 v 5.649 h -9.583 z"
         id="path195" /></clipPath><clipPath
       clipPathUnits="userSpaceOnUse"
       id="clipPath213"><path
         d="m 267.597,358.299 h 13.946 v 7.149 h -13.946 z"
         id="path211" /></clipPath><clipPath
       clipPathUnits="userSpaceOnUse"
       id="clipPath229"><path
         d="m 282.082,342.597 h 8.153 v 19.418 h -8.153 z"
         id="path227" /></clipPath><clipPath
       clipPathUnits="userSpaceOnUse"
       id="clipPath245"><path
         d="m 278.649,342.525 h 17.201 v 20.384 h -17.201 z"
         id="path243" /></clipPath><clipPath
       clipPathUnits="userSpaceOnUse"
       id="clipPath261"><path
         d="m 295.566,342.06 h 10.12 v 17.523 h -10.12 z"
         id="path259" /></clipPath><clipPath
       clipPathUnits="userSpaceOnUse"
       id="clipPath277"><path
         d="m 296.496,348.534 h 9.547 v 5.756 h -9.547 z"
         id="path275" /></clipPath><clipPath
       clipPathUnits="userSpaceOnUse"
       id="clipPath293"><path
         d="m 299.657,357.154 h 11.107 v 5.97 h -11.107 z"
         id="path291" /></clipPath><clipPath
       clipPathUnits="userSpaceOnUse"
       id="clipPath309"><path
         d="m 315.094,353.269 h 7.008 v 11.393 h -7.008 z"
         id="path307" /></clipPath><clipPath
       clipPathUnits="userSpaceOnUse"
       id="clipPath325"><path
         d="m 317.491,345.673 h 11.907 v 18.56 h -11.907 z"
         id="path323" /></clipPath><clipPath
       clipPathUnits="userSpaceOnUse"
       id="clipPath341"><path
         d="m 348.858,347.211 h 15.877 V 365.9 h -15.877 z"
         id="path339" /></clipPath><clipPath
       clipPathUnits="userSpaceOnUse"
       id="clipPath357"><path
         d="m 369.104,347.247 h 11.654 v 19.287 h -11.654 z"
         id="path355" /></clipPath><clipPath
       clipPathUnits="userSpaceOnUse"
       id="clipPath373"><path
         d="m 384.731,346.46 h 6.707 v 19.061 h -6.707 z"
         id="path371" /></clipPath><clipPath
       clipPathUnits="userSpaceOnUse"
       id="clipPath389"><path
         d="m 395.532,345.645 h 14.733 v 22.129 h -14.733 z"
         id="path387" /></clipPath><clipPath
       clipPathUnits="userSpaceOnUse"
       id="clipPath405"><path
         d="m 414.561,348.145 h 12.907 v 17.101 h -12.907 z"
         id="path403" /></clipPath><clipPath
       clipPathUnits="userSpaceOnUse"
       id="clipPath421"><path
         d="m 430.404,349.09 h 12.73 v 18.255 h -12.73 z"
         id="path419" /></clipPath><clipPath
       clipPathUnits="userSpaceOnUse"
       id="clipPath437"><path
         d="m 446.713,347.461 h 10.87 v 17.273 h -10.87 z"
         id="path435" /></clipPath><clipPath
       clipPathUnits="userSpaceOnUse"
       id="clipPath453"><path
         d="m 449.825,353.542 h 9.618 v 4.575 h -9.618 z"
         id="path451" /></clipPath><clipPath
       clipPathUnits="userSpaceOnUse"
       id="clipPath469"><path
         d="m 450.361,359.657 h 10.763 v 4.934 h -10.763 z"
         id="path467" /></clipPath><clipPath
       clipPathUnits="userSpaceOnUse"
       id="clipPath485"><path
         d="m 466.027,346.782 h 20.276 v 19.025 h -20.276 z"
         id="path483" /></clipPath></defs><sodipodi:namedview
     id="namedview99"
     pagecolor="#ffffff"
     bordercolor="#666666"
     borderopacity="1.0"
     inkscape:pageshadow="2"
     inkscape:pageopacity="0.0"
     inkscape:pagecheckerboard="true"
     showgrid="false"
     fit-margin-top="10"
     lock-margins="true"
     fit-margin-left="10"
     fit-margin-right="10"
     fit-margin-bottom="10"
     inkscape:zoom="2.8284271"
     inkscape:cx="123.21336"
     inkscape:cy="42.24963"
     inkscape:window-width="1920"
     inkscape:window-height="1001"
     inkscape:window-x="-9"
     inkscape:window-y="-9"
     inkscape:window-maximized="1"
     inkscape:current-layer="g103" /><g
     id="g103"
     inkscape:groupmode="layer"
     inkscape:label="sig"
     transform="matrix(1.3333333,0,0,-1.3333333,-292.95733,500.36532)"><g
       id="g1814"><g
         id="g123"
         style="stroke:#000000;stroke-opacity:1;stroke-width:1.50000004;stroke-miterlimit:4;stroke-dasharray:none"><g
           id="g125"
           style="stroke:#000000;stroke-opacity:1;stroke-width:1.50000004;stroke-miterlimit:4;stroke-dasharray:none"><g
             id="g127"
             style="stroke:#000000;stroke-opacity:1;stroke-width:1.50000004;stroke-miterlimit:4;stroke-dasharray:none"><g
               id="g129"
               clip-path="url(#clipPath133)"
               style="stroke:#000000;stroke-opacity:1;stroke-width:1.50000004;stroke-miterlimit:4;stroke-dasharray:none"><g
                 id="g135"
                 style="stroke:#000000;stroke-opacity:1;stroke-width:1.50000004;stroke-miterlimit:4;stroke-dasharray:none"><path
                   d="m 228.218,340.45 v 0 0 0 0 0 0 0 0 0 0 0 0 0 0 0 l 0.429,0.393 v 0.286 l 0.036,0.286 0.071,0.251 0.143,0.286 0.215,0.322 0.215,0.393 0.214,0.393 0.286,0.465 0.358,0.537 0.358,0.608 0.357,0.608 0.394,0.644 0.429,0.608 0.429,0.679 0.501,0.68 0.536,0.715 0.644,0.787 0.644,0.823 0.679,0.822 0.68,0.823 0.751,0.823 0.68,0.858 0.679,0.823 0.644,0.822 0.644,0.823 0.608,0.751 0.608,0.751 0.572,0.68 0.536,0.644 0.501,0.572 0.501,0.501 0.429,0.536 0.394,0.572 0.393,0.501 0.358,0.358 0.321,0.322 0.322,0.286 0.251,0.179 v 0 l 0.25,0.143 0.179,0.214 v 0 0 0 0 0 l 0.25,0.072 v 0 0 0 0 0 l 0.179,-0.179 0.107,-0.215 0.072,-0.286 0.036,-0.25 v 0 -0.358 l 0.035,-0.357 v -0.465 -0.537 -0.536 -0.573 l -0.035,-0.644 -0.036,-0.751 v -0.751 -0.787 l -0.036,-0.822 -0.036,-0.894 v -0.644 -0.751 l -0.035,-1.145 -0.036,-1.037 v -0.93 l -0.036,-0.894 v -0.823 -0.751 -0.465 -0.501 -0.679 -0.644 -0.536 l 0.072,-0.43 0.035,-0.429 0.036,-0.465 v -0.393 -0.394 l -0.036,-0.357 -0.035,-0.322 -0.036,-0.251 v -0.25 0 0 0"
                   style="fill:none;stroke:#000000;stroke-width:1.50000004;stroke-linecap:round;stroke-linejoin:round;stroke-miterlimit:4;stroke-dasharray:none;stroke-opacity:1"
                   id="path137" /></g></g></g></g></g><g
         id="g139"
         style="stroke:#000000;stroke-opacity:1;stroke-width:1.50000004;stroke-miterlimit:4;stroke-dasharray:none"><g
           id="g141"
           style="stroke:#000000;stroke-opacity:1;stroke-width:1.50000004;stroke-miterlimit:4;stroke-dasharray:none"><g
             id="g143"
             style="stroke:#000000;stroke-opacity:1;stroke-width:1.50000004;stroke-miterlimit:4;stroke-dasharray:none"><g
               id="g145"
               clip-path="url(#clipPath149)"
               style="stroke:#000000;stroke-opacity:1;stroke-width:1.50000004;stroke-miterlimit:4;stroke-dasharray:none"><g
                 id="g151"
                 style="stroke:#000000;stroke-opacity:1;stroke-width:1.50000004;stroke-miterlimit:4;stroke-dasharray:none"><path
                   d="m 237.982,350.643 -0.501,-0.036 -0.322,-0.036 -0.286,-0.107 -0.286,-0.107 -0.25,-0.143 -0.251,-0.143 v 0 l -0.25,-0.143 v 0 l -0.215,-0.108 v 0 0 0 0 0 0 0 0 0 l 0.215,0.072 0.25,0.107 0.394,0.143 0.465,0.072 0.465,0.036 0.536,0.035 0.501,0.072 0.465,0.036 0.465,0.035 h 0.465 l 0.429,0.036 0.465,0.072 0.357,0.071 0.43,0.108 0.643,0.107 0.537,0.143 0.572,0.179 0.572,0.214 0.537,0.251 0.501,0.286 0.5,0.358 0.501,0.321"
                   style="fill:none;stroke:#000000;stroke-width:1.50000004;stroke-linecap:round;stroke-linejoin:round;stroke-miterlimit:4;stroke-dasharray:none;stroke-opacity:1"
                   id="path153" /></g></g></g></g></g></g><g
       id="g155"
       transform="translate(0.22201492,-2.2201492)"
       style="stroke:#000000;stroke-opacity:1;stroke-width:1.50000004;stroke-miterlimit:4;stroke-dasharray:none"><g
         id="g157"
         style="stroke:#000000;stroke-opacity:1;stroke-width:1.50000004;stroke-miterlimit:4;stroke-dasharray:none"><g
           id="g159"
           style="stroke:#000000;stroke-opacity:1;stroke-width:1.50000004;stroke-miterlimit:4;stroke-dasharray:none"><g
             id="g161"
             clip-path="url(#clipPath165)"
             style="stroke:#000000;stroke-opacity:1;stroke-width:1.50000004;stroke-miterlimit:4;stroke-dasharray:none"><g
               id="g167"
               style="stroke:#000000;stroke-opacity:1;stroke-width:1.50000004;stroke-miterlimit:4;stroke-dasharray:none"><path
                 d="m 257.26,364.27 v 0 0 0 0 0 0 0 0 l -0.108,-0.25 v 0 0 0 0 0 l -0.25,-0.322 -0.215,-0.251 -0.143,-0.357 -0.107,-0.322 -0.143,-0.394 -0.143,-0.429 -0.143,-0.465 -0.143,-0.5 -0.143,-0.573 -0.215,-0.572 -0.214,-0.644 -0.215,-0.679 -0.25,-0.787 -0.287,-0.751 -0.286,-0.787 -0.286,-0.823 -0.214,-0.822 -0.287,-0.823 -0.25,-0.858 -0.214,-0.859 -0.144,-0.894 -0.143,-0.823 -0.143,-0.786 -0.143,-0.68 -0.035,-0.644 -0.036,-0.572 v -0.537 l 0.036,-0.5 0.071,-0.465 0.036,-0.286 0.071,-0.287 0.108,-0.357 0.107,-0.358 0.107,-0.215 v 0 l 0.143,-0.214 0.143,-0.25 0.179,-0.179 0.179,-0.179 v 0 l 0.25,-0.072 v 0 l 0.287,-0.107 0.286,-0.036 h 0.286 l 0.286,0.072 0.322,0.071 0.357,0.036 0.394,-0.036 0.501,-0.035 0.608,-0.036 h 0.572 l 0.536,0.071 0.573,0.072 0.608,0.071 0.572,0.108"
                 style="fill:none;stroke:#000000;stroke-width:1.50000004;stroke-linecap:round;stroke-linejoin:round;stroke-miterlimit:4;stroke-dasharray:none;stroke-opacity:1"
                 id="path169" /></g></g></g></g></g><g
       id="g1518"
       transform="translate(0,-1.5)"
       style="stroke:#000000;stroke-opacity:1;stroke-width:1.50000004;stroke-miterlimit:4;stroke-dasharray:none"><g
         id="g171"
         style="stroke:#000000;stroke-opacity:1;stroke-width:1.50000004;stroke-miterlimit:4;stroke-dasharray:none"><g
           id="g173"
           style="stroke:#000000;stroke-opacity:1;stroke-width:1.50000004;stroke-miterlimit:4;stroke-dasharray:none"><g
             id="g175"
             style="stroke:#000000;stroke-opacity:1;stroke-width:1.50000004;stroke-miterlimit:4;stroke-dasharray:none"><g
               id="g177"
               clip-path="url(#clipPath181)"
               style="stroke:#000000;stroke-opacity:1;stroke-width:1.50000004;stroke-miterlimit:4;stroke-dasharray:none"><g
                 id="g183"
                 style="stroke:#000000;stroke-opacity:1;stroke-width:1.50000004;stroke-miterlimit:4;stroke-dasharray:none"><path
                   d="m 271.638,362.982 v 0 0 0 0 0 0 0 0 0 l -0.036,-0.286 -0.072,-0.25 -0.071,-0.25 -0.108,-0.215 -0.107,-0.322 -0.143,-0.465 -0.179,-0.429 -0.143,-0.322 -0.214,-0.358 -0.251,-0.465 -0.214,-0.5 -0.251,-0.573 -0.286,-0.572 -0.25,-0.608 -0.286,-0.679 -0.251,-0.752 -0.179,-0.572 -0.143,-0.679 -0.322,-1.038 -0.321,-1.001 -0.251,-1.002 -0.286,-1.037 -0.25,-0.965 -0.251,-0.859 -0.214,-0.822 -0.107,-0.752 -0.144,-0.715 -0.107,-0.608 -0.036,-0.536 -0.035,-0.501 v -0.394 l 0.071,-0.321 0.107,-0.358 0.179,-0.286 0.251,-0.215 0.286,-0.143 0.357,-0.143 0.322,-0.143 0.358,-0.107 0.393,-0.036 h 0.394 l 0.429,0.036 0.429,0.071 0.465,0.072 0.465,0.107 0.501,0.143 0.501,0.179 0.465,0.179 0.429,0.179 0.465,0.214 0.393,0.215"
                   style="fill:none;stroke:#000000;stroke-width:1.50000004;stroke-linecap:round;stroke-linejoin:round;stroke-miterlimit:4;stroke-dasharray:none;stroke-opacity:1"
                   id="path185" /></g></g></g></g></g><g
         id="g187"
         style="stroke:#000000;stroke-opacity:1;stroke-width:1.50000004;stroke-miterlimit:4;stroke-dasharray:none"><g
           id="g189"
           style="stroke:#000000;stroke-opacity:1;stroke-width:1.50000004;stroke-miterlimit:4;stroke-dasharray:none"><g
             id="g191"
             style="stroke:#000000;stroke-opacity:1;stroke-width:1.50000004;stroke-miterlimit:4;stroke-dasharray:none"><g
               id="g193"
               clip-path="url(#clipPath197)"
               style="stroke:#000000;stroke-opacity:1;stroke-width:1.50000004;stroke-miterlimit:4;stroke-dasharray:none"><g
                 id="g199"
                 style="stroke:#000000;stroke-opacity:1;stroke-width:1.50000004;stroke-miterlimit:4;stroke-dasharray:none"><path
                   d="m 268.705,349.928 v 0 0 0 0 l 0.107,0.286 0.143,0.214 0.143,0.215 0.215,0.215 0.25,0.178 0.322,0.215 0.322,0.179 0.393,0.214 0.394,0.144 0.465,0.143 0.465,0.143 0.465,0.179 0.429,0.107 0.465,0.107 0.465,0.107 0.465,0.108 0.357,0.071 0.394,0.108 0.393,0.178 0.358,0.179 0.322,0.179 0.25,0.179"
                   style="fill:none;stroke:#000000;stroke-width:1.50000004;stroke-linecap:round;stroke-linejoin:round;stroke-miterlimit:4;stroke-dasharray:none;stroke-opacity:1"
                   id="path201" /></g></g></g></g></g><g
         id="g203"
         style="stroke:#000000;stroke-opacity:1;stroke-width:1.50000004;stroke-miterlimit:4;stroke-dasharray:none"><g
           id="g205"
           style="stroke:#000000;stroke-opacity:1;stroke-width:1.50000004;stroke-miterlimit:4;stroke-dasharray:none"><g
             id="g207"
             style="stroke:#000000;stroke-opacity:1;stroke-width:1.50000004;stroke-miterlimit:4;stroke-dasharray:none"><g
               id="g209"
               clip-path="url(#clipPath213)"
               style="stroke:#000000;stroke-opacity:1;stroke-width:1.50000004;stroke-miterlimit:4;stroke-dasharray:none"><g
                 id="g215"
                 style="stroke:#000000;stroke-opacity:1;stroke-width:1.50000004;stroke-miterlimit:4;stroke-dasharray:none"><path
                   d="m 268.597,359.299 v 0 0 0 0 0 0 l 0.215,0.178 0.286,0.286 0.394,0.394 0.5,0.429 0.608,0.465 0.608,0.429 0.68,0.358 0.715,0.465 0.751,0.465 0.823,0.358 0.823,0.25 0.822,0.286 0.823,0.322 0.822,0.286 0.859,0.107 0.787,0.072 0.751,-0.036 h 0.679"
                   style="fill:none;stroke:#000000;stroke-width:1.50000004;stroke-linecap:round;stroke-linejoin:round;stroke-miterlimit:4;stroke-dasharray:none;stroke-opacity:1"
                   id="path217" /></g></g></g></g></g></g><g
       id="g1532"
       transform="matrix(1.2099139,0,0,1.2099139,-58.492312,-74.452791)"
       style="stroke:#000000;stroke-opacity:1;stroke-width:1.23975767;stroke-miterlimit:4;stroke-dasharray:none"><g
         id="g219"
         style="stroke:#000000;stroke-opacity:1;stroke-width:1.23975767;stroke-miterlimit:4;stroke-dasharray:none"><g
           id="g221"
           style="stroke:#000000;stroke-opacity:1;stroke-width:1.23975767;stroke-miterlimit:4;stroke-dasharray:none"><g
             id="g223"
             style="stroke:#000000;stroke-opacity:1;stroke-width:1.23975767;stroke-miterlimit:4;stroke-dasharray:none"><g
               id="g225"
               clip-path="url(#clipPath229)"
               style="stroke:#000000;stroke-opacity:1;stroke-width:1.23975767;stroke-miterlimit:4;stroke-dasharray:none"><g
                 id="g231"
                 style="stroke:#000000;stroke-opacity:1;stroke-width:1.23975767;stroke-miterlimit:4;stroke-dasharray:none"><path
                   d="m 283.083,361.015 v 0 0 0 0 l 0.143,-0.25 v 0 0 l 0.107,-0.358 0.107,-0.465 0.072,-0.322 0.107,-0.393 0.107,-0.429 0.108,-0.465 0.143,-0.501 0.143,-0.536 0.179,-0.644 0.214,-0.751 0.143,-0.823 0.215,-0.894 0.215,-0.858 0.214,-0.93 0.215,-0.895 0.179,-0.894 0.25,-0.858 0.25,-0.823 0.251,-0.787 0.25,-0.715 0.25,-0.68 0.215,-0.608 0.215,-0.572 0.25,-0.501 0.179,-0.429 0.214,-0.393 0.215,-0.286 0.215,-0.179 0.214,-0.107 0.215,-0.072 h 0.179 l 0.178,0.072"
                   style="fill:none;stroke:#000000;stroke-width:1.23975767;stroke-linecap:round;stroke-linejoin:round;stroke-miterlimit:4;stroke-dasharray:none;stroke-opacity:1"
                   id="path233" /></g></g></g></g></g><g
         id="g235"
         style="stroke:#000000;stroke-opacity:1;stroke-width:1.23975767;stroke-miterlimit:4;stroke-dasharray:none"><g
           id="g237"
           style="stroke:#000000;stroke-opacity:1;stroke-width:1.23975767;stroke-miterlimit:4;stroke-dasharray:none"><g
             id="g239"
             style="stroke:#000000;stroke-opacity:1;stroke-width:1.23975767;stroke-miterlimit:4;stroke-dasharray:none"><g
               id="g241"
               clip-path="url(#clipPath245)"
               style="stroke:#000000;stroke-opacity:1;stroke-width:1.23975767;stroke-miterlimit:4;stroke-dasharray:none"><g
                 id="g247"
                 style="stroke:#000000;stroke-opacity:1;stroke-width:1.23975767;stroke-miterlimit:4;stroke-dasharray:none"><path
                   d="m 294.85,361.909 v 0 0 0 0 0 0 0 0 0 h -0.215 l -0.143,-0.143 -0.179,-0.071 -0.214,-0.036 -0.215,-0.107 -0.215,-0.215 -0.286,-0.25 -0.357,-0.251 -0.394,-0.393 -0.501,-0.536 -0.572,-0.608 -0.679,-0.716 -0.716,-0.751 -0.751,-0.823 -0.858,-0.929 -0.823,-1.038 -0.822,-1.073 -0.787,-1.108 -0.787,-1.109 -0.751,-1.109 -0.751,-1.073 -0.716,-0.966 -0.679,-0.894 -0.572,-0.858 -0.537,-0.787 -0.465,-0.68 -0.393,-0.572 -0.322,-0.429 -0.322,-0.501 -0.179,-0.358 v 0 0"
                   style="fill:none;stroke:#000000;stroke-width:1.23975767;stroke-linecap:round;stroke-linejoin:round;stroke-miterlimit:4;stroke-dasharray:none;stroke-opacity:1"
                   id="path249" /></g></g></g></g></g></g><g
       id="g1552"
       transform="matrix(1.1639642,0,0,1.1639642,-47.363318,-58.056553)"
       style="stroke:#000000;stroke-opacity:1;stroke-width:1.28869946;stroke-miterlimit:4;stroke-dasharray:none"><g
         id="g251"
         style="stroke:#000000;stroke-opacity:1;stroke-width:1.28869946;stroke-miterlimit:4;stroke-dasharray:none"><g
           id="g253"
           style="stroke:#000000;stroke-opacity:1;stroke-width:1.28869946;stroke-miterlimit:4;stroke-dasharray:none"><g
             id="g255"
             style="stroke:#000000;stroke-opacity:1;stroke-width:1.28869946;stroke-miterlimit:4;stroke-dasharray:none"><g
               id="g257"
               clip-path="url(#clipPath261)"
               style="stroke:#000000;stroke-opacity:1;stroke-width:1.28869946;stroke-miterlimit:4;stroke-dasharray:none"><g
                 id="g263"
                 style="stroke:#000000;stroke-opacity:1;stroke-width:1.28869946;stroke-miterlimit:4;stroke-dasharray:none"><path
                   d="m 301.538,358.583 v 0 0 0 0 0 0 0 0 0 l -0.215,-0.071 -0.214,-0.108 -0.215,-0.178 -0.179,-0.215 -0.214,-0.286 -0.215,-0.322 -0.215,-0.358 -0.214,-0.393 -0.251,-0.465 -0.25,-0.537 -0.25,-0.608 -0.251,-0.644 -0.25,-0.679 -0.25,-0.715 -0.251,-0.787 -0.214,-0.823 -0.215,-0.823 -0.179,-0.894 -0.214,-0.787 -0.215,-0.786 -0.143,-0.716 -0.179,-0.644 -0.143,-0.643 -0.036,-0.537 v -0.465 l 0.036,-0.429 0.143,-0.358 0.179,-0.357 0.179,-0.251 0.214,-0.25 0.287,-0.179 0.322,-0.071 0.357,-0.072 0.394,-0.036 0.429,-0.036 h 0.465 l 0.5,0.036 0.501,0.072 0.537,0.107 0.572,0.072 0.751,0.071 0.68,0.072 0.572,0.107 0.536,0.143 0.465,0.179"
                   style="fill:none;stroke:#000000;stroke-width:1.28869946;stroke-linecap:round;stroke-linejoin:round;stroke-miterlimit:4;stroke-dasharray:none;stroke-opacity:1"
                   id="path265" /></g></g></g></g></g><g
         id="g267"
         style="stroke:#000000;stroke-opacity:1;stroke-width:1.28869946;stroke-miterlimit:4;stroke-dasharray:none"><g
           id="g269"
           style="stroke:#000000;stroke-opacity:1;stroke-width:1.28869946;stroke-miterlimit:4;stroke-dasharray:none"><g
             id="g271"
             style="stroke:#000000;stroke-opacity:1;stroke-width:1.28869946;stroke-miterlimit:4;stroke-dasharray:none"><g
               id="g273"
               clip-path="url(#clipPath277)"
               style="stroke:#000000;stroke-opacity:1;stroke-width:1.28869946;stroke-miterlimit:4;stroke-dasharray:none"><g
                 id="g279"
                 style="stroke:#000000;stroke-opacity:1;stroke-width:1.28869946;stroke-miterlimit:4;stroke-dasharray:none"><path
                   d="m 297.496,349.534 v 0 0 0 0 l 0.143,0.215 0.179,0.214 0.215,0.215 0.25,0.25 0.286,0.251 0.322,0.25 0.394,0.251 0.465,0.25 0.5,0.286 0.537,0.25 0.536,0.251 0.572,0.25 0.573,0.179 0.822,0.215 0.68,0.178 0.572,0.143 0.501,0.108"
                   style="fill:none;stroke:#000000;stroke-width:1.28869946;stroke-linecap:round;stroke-linejoin:round;stroke-miterlimit:4;stroke-dasharray:none;stroke-opacity:1"
                   id="path281" /></g></g></g></g></g><g
         id="g283"
         style="stroke:#000000;stroke-opacity:1;stroke-width:1.28869946;stroke-miterlimit:4;stroke-dasharray:none"><g
           id="g285"
           style="stroke:#000000;stroke-opacity:1;stroke-width:1.28869946;stroke-miterlimit:4;stroke-dasharray:none"><g
             id="g287"
             style="stroke:#000000;stroke-opacity:1;stroke-width:1.28869946;stroke-miterlimit:4;stroke-dasharray:none"><g
               id="g289"
               clip-path="url(#clipPath293)"
               style="stroke:#000000;stroke-opacity:1;stroke-width:1.28869946;stroke-miterlimit:4;stroke-dasharray:none"><g
                 id="g295"
                 style="stroke:#000000;stroke-opacity:1;stroke-width:1.28869946;stroke-miterlimit:4;stroke-dasharray:none"><path
                   d="m 301.073,358.154 v 0 l -0.215,0.179 -0.214,0.179 v 0 0 0 0 l 0.035,0.214 v 0 l 0.144,0.215 0.214,0.25 0.286,0.215 0.358,0.179 0.393,0.178 0.465,0.251 0.501,0.286 0.536,0.25 0.537,0.251 0.608,0.25 0.608,0.25 0.608,0.251 0.644,0.214 0.679,0.143 0.966,0.108 h 0.823 l 0.715,0.107"
                   style="fill:none;stroke:#000000;stroke-width:1.28869946;stroke-linecap:round;stroke-linejoin:round;stroke-miterlimit:4;stroke-dasharray:none;stroke-opacity:1"
                   id="path297" /></g></g></g></g></g></g><g
       id="g1566"
       transform="matrix(1.1975661,0,0,1.1975661,-62.655004,-73.26403)"
       style="stroke:#000000;stroke-opacity:1;stroke-width:1.2525405;stroke-miterlimit:4;stroke-dasharray:none"><g
         id="g299"
         style="stroke:#000000;stroke-opacity:1;stroke-width:1.2525405;stroke-miterlimit:4;stroke-dasharray:none"><g
           id="g301"
           style="stroke:#000000;stroke-opacity:1;stroke-width:1.2525405;stroke-miterlimit:4;stroke-dasharray:none"><g
             id="g303"
             style="stroke:#000000;stroke-opacity:1;stroke-width:1.2525405;stroke-miterlimit:4;stroke-dasharray:none"><g
               id="g305"
               clip-path="url(#clipPath309)"
               style="stroke:#000000;stroke-opacity:1;stroke-width:1.2525405;stroke-miterlimit:4;stroke-dasharray:none"><g
                 id="g311"
                 style="stroke:#000000;stroke-opacity:1;stroke-width:1.2525405;stroke-miterlimit:4;stroke-dasharray:none"><path
                   d="m 316.095,363.662 v 0 0 0 0 0 l 0.143,-0.107 v 0 l 0.143,-0.143 0.143,-0.179 0.143,-0.286 0.143,-0.394 0.179,-0.429 0.179,-0.465 0.178,-0.536 0.215,-0.608 0.215,-0.608 0.214,-0.608 0.215,-0.609 0.214,-0.643 0.251,-0.608 0.25,-0.608 0.25,-0.537 0.251,-0.465 0.357,-0.608 0.358,-0.465 0.286,-0.322 0.286,-0.143 0.179,-0.036 0.215,0.036"
                   style="fill:none;stroke:#000000;stroke-width:1.2525405;stroke-linecap:round;stroke-linejoin:round;stroke-miterlimit:4;stroke-dasharray:none;stroke-opacity:1"
                   id="path313" /></g></g></g></g></g><g
         id="g315"
         style="stroke:#000000;stroke-opacity:1;stroke-width:1.2525405;stroke-miterlimit:4;stroke-dasharray:none"><g
           id="g317"
           style="stroke:#000000;stroke-opacity:1;stroke-width:1.2525405;stroke-miterlimit:4;stroke-dasharray:none"><g
             id="g319"
             style="stroke:#000000;stroke-opacity:1;stroke-width:1.2525405;stroke-miterlimit:4;stroke-dasharray:none"><g
               id="g321"
               clip-path="url(#clipPath325)"
               style="stroke:#000000;stroke-opacity:1;stroke-width:1.2525405;stroke-miterlimit:4;stroke-dasharray:none"><g
                 id="g327"
                 style="stroke:#000000;stroke-opacity:1;stroke-width:1.2525405;stroke-miterlimit:4;stroke-dasharray:none"><path
                   d="m 328.398,363.233 v 0 0 0 0 0 0 0 0 l -0.107,-0.286 -0.179,-0.286 -0.179,-0.251 -0.179,-0.286 -0.179,-0.358 -0.214,-0.465 -0.251,-0.536 -0.357,-0.572 -0.429,-0.608 -0.465,-0.68 -0.501,-0.751 -0.537,-0.787 -0.608,-0.858 -0.643,-0.894 -0.608,-1.002 -0.608,-1.001 -0.608,-1.002 -0.573,-0.93 -0.572,-0.822 -0.501,-0.716 -0.429,-0.715 -0.358,-0.608 -0.286,-0.537 -0.214,-0.465 -0.143,-0.429 -0.108,-0.393 -0.071,-0.322"
                   style="fill:none;stroke:#000000;stroke-width:1.2525405;stroke-linecap:round;stroke-linejoin:round;stroke-miterlimit:4;stroke-dasharray:none;stroke-opacity:1"
                   id="path329" /></g></g></g></g></g></g><g
       id="g331"
       transform="matrix(1.243601,0,0,1.243601,-88.849816,-91.488435)"
       style="stroke:#000000;stroke-opacity:1;stroke-width:1.20617468;stroke-miterlimit:4;stroke-dasharray:none"><g
         id="g333"
         style="stroke:#000000;stroke-opacity:1;stroke-width:1.20617468;stroke-miterlimit:4;stroke-dasharray:none"><g
           id="g335"
           style="stroke:#000000;stroke-opacity:1;stroke-width:1.20617468;stroke-miterlimit:4;stroke-dasharray:none"><g
             id="g337"
             clip-path="url(#clipPath341)"
             style="stroke:#000000;stroke-opacity:1;stroke-width:1.20617468;stroke-miterlimit:4;stroke-dasharray:none"><g
               id="g343"
               style="stroke:#000000;stroke-opacity:1;stroke-width:1.20617468;stroke-miterlimit:4;stroke-dasharray:none"><path
                 d="m 363.627,362.482 v 0 0 0.179 0 0 0 l 0.036,0.25 0.036,0.179 v 0 0 l 0.036,0.286 v 0.286 0.25 l -0.036,0.179 v 0 0 0 0 0 l -0.179,0.143 -0.179,0.179 -0.143,0.072 v 0 h -0.179 v 0 h -0.214 v 0 l -0.215,0.071 v 0 l -0.25,0.072 -0.251,0.071 -0.214,0.072 -0.215,0.107 -0.214,0.036 v 0 l -0.215,-0.072 -0.25,-0.143 -0.215,-0.071 -0.214,-0.036 -0.251,0.072 -0.214,0.107 -0.251,-0.036 -0.214,-0.143 -0.215,-0.179 -0.25,-0.215 -0.215,-0.107 -0.215,-0.036 -0.214,-0.035 -0.179,-0.108 v 0 l -0.215,-0.107 -0.214,-0.107 -0.143,-0.179 -0.179,-0.143 v 0 l -0.322,-0.072 v 0 l -0.322,-0.035 -0.322,-0.251 -0.322,-0.25 -0.321,-0.286 -0.322,-0.215 -0.251,-0.179 -0.25,-0.143 -0.322,-0.143 -0.286,-0.214 -0.215,-0.322 -0.214,-0.286 -0.215,-0.251 -0.215,-0.25 -0.25,-0.215 -0.214,-0.214 -0.215,-0.287 -0.215,-0.214 v 0 l -0.25,-0.179 v 0 l -0.25,-0.25 -0.251,-0.179 -0.214,-0.215 -0.179,-0.214 -0.179,-0.215 -0.143,-0.215 -0.215,-0.178 -0.143,-0.251 -0.143,-0.214 v 0 l -0.179,-0.286 -0.143,-0.215 v 0 l -0.143,-0.286 v 0 l -0.107,-0.322 -0.072,-0.286 -0.071,-0.251 -0.036,-0.178 -0.071,-0.215 -0.036,-0.322 -0.036,-0.286 -0.036,-0.286 v 0 l -0.035,-0.358 v -0.358 -0.357 -0.322 -0.286 0 l 0.035,-0.358 0.108,-0.322 0.071,-0.286 0.072,-0.25 0.107,-0.215 0.143,-0.214 0.107,-0.215 0.108,-0.25 0.107,-0.251 0.143,-0.286 0.179,-0.215 0.179,-0.214 0.214,-0.179 0.251,-0.215 0.214,-0.214 0.251,-0.179 0.25,-0.179 0.286,-0.143 0.286,-0.107 0.251,-0.143 0.286,-0.072 0.286,-0.036 0.286,-0.071 h 0.25 0.286 0.358 l 0.322,0.071 0.322,0.036 0.286,0.072 0.286,0.035 0.215,0.072 0.214,0.072 0.215,0.071 0.214,0.072 0.215,0.071 0.25,0.036 0.215,0.071 0.215,0.108 0.286,0.107 0.286,0.107 0.25,0.072 v 0 l 0.251,0.107 v 0 l 0.214,0.072 0.179,0.071 0.179,0.108 0.179,0.107 0.25,0.143 v 0 l 0.25,0.179 0.251,0.179 v 0 l 0.107,0.178 0.107,0.179 v 0 l 0.072,0.215 0.071,0.214 0.072,0.215 v 0.179 0.179 0 0.214 0.215 l -0.036,0.215 -0.071,0.214 -0.108,0.215 -0.107,0.25 -0.143,0.215 -0.143,0.179 -0.179,0.214 -0.179,0.25 -0.179,0.179 -0.143,0.179 -0.178,0.143 -0.144,0.143 -0.143,0.143 v 0 l -0.143,0.108 -0.178,0.107 v 0 l -0.144,0.107 -0.178,0.072 v 0 h -0.215 v 0 h -0.215 l -0.178,-0.036 v 0 0 l -0.215,-0.072 v 0 0 l -0.215,-0.071 v 0 0 0 0 0 0 0 0 l 0.215,-0.107 0.25,-0.072 0.251,-0.036 0.286,-0.071 0.286,-0.036 0.358,-0.036 0.357,-0.036 0.358,-0.035 h 0.358 0.357 l 0.358,0.071 0.358,0.072"
                 style="fill:none;stroke:#000000;stroke-width:1.20617468;stroke-linecap:round;stroke-linejoin:round;stroke-miterlimit:4;stroke-dasharray:none;stroke-opacity:1"
                 id="path345" /></g></g></g></g></g><g
       id="g347"
       transform="matrix(1.2441889,0,0,1.2441889,-94.369913,-92.95726)"
       style="stroke:#000000;stroke-opacity:1;stroke-width:1.20560474;stroke-miterlimit:4;stroke-dasharray:none"><g
         id="g349"
         style="stroke:#000000;stroke-opacity:1;stroke-width:1.20560474;stroke-miterlimit:4;stroke-dasharray:none"><g
           id="g351"
           style="stroke:#000000;stroke-opacity:1;stroke-width:1.20560474;stroke-miterlimit:4;stroke-dasharray:none"><g
             id="g353"
             clip-path="url(#clipPath357)"
             style="stroke:#000000;stroke-opacity:1;stroke-width:1.20560474;stroke-miterlimit:4;stroke-dasharray:none"><g
               id="g359"
               style="stroke:#000000;stroke-opacity:1;stroke-width:1.20560474;stroke-miterlimit:4;stroke-dasharray:none"><path
                 d="m 372.998,362.768 v 0 0 0 0 0 0 0 0 0 0 0 0 0 0 0 l -0.143,-0.179 -0.143,-0.179 -0.143,-0.25 -0.107,-0.286 -0.108,-0.251 v 0 l -0.179,-0.429 -0.178,-0.536 -0.143,-0.537 -0.144,-0.501 -0.143,-0.536 -0.143,-0.68 -0.143,-0.679 -0.179,-0.68 -0.143,-0.679 -0.143,-0.716 -0.143,-0.715 -0.107,-0.751 -0.107,-0.715 -0.108,-0.68 -0.071,-0.644 -0.072,-0.572 -0.071,-0.537 -0.036,-0.429 0.036,-0.322 0.071,-0.25 v 0 0 0 0 0 0 l 0.072,0.286 0.071,0.358 0.072,0.357 0.071,0.394 0.036,0.393 0.072,0.43 0.036,0.429 v 0.429 l 0.035,0.322 0.036,0.357 0.072,0.573 0.071,0.572 0.072,0.536 0.071,0.465 0.107,0.501 0.144,0.537 0.107,0.393 0.107,0.394 0.143,0.465 0.215,0.5 0.214,0.501 0.215,0.501 0.25,0.536 0.287,0.572 0.286,0.537 0.321,0.465 0.358,0.465 0.394,0.501 0.536,0.679 0.393,0.608 0.394,0.501 0.393,0.286 0.358,0.215 0.286,0.214 0.322,0.179 h 0.322 v 0 l 0.322,0.072 v 0 l 0.322,-0.108 v 0 0 l 0.25,-0.25 0.215,-0.322 0.107,-0.25 0.071,-0.286 0.036,-0.251 v 0 l -0.071,-0.286 -0.072,-0.393 -0.107,-0.358 -0.143,-0.286 -0.179,-0.358 -0.179,-0.465 -0.179,-0.357 -0.214,-0.251 -0.251,-0.25 -0.25,-0.215 -0.25,-0.25 -0.251,-0.286 -0.214,-0.215 -0.215,-0.214 -0.25,-0.215 -0.251,-0.179 -0.25,-0.143 -0.25,-0.107 -0.251,-0.108 -0.214,-0.107 -0.215,-0.036 v 0 H 374 v 0 0 l -0.179,0.143 v 0 0 0 0 0 0 0 l -0.072,0.287 v 0 0 0 0 0 l 0.251,-0.036 0.25,-0.036 0.25,-0.036 0.251,-0.107 0.25,-0.179 0.179,-0.143 0.214,-0.143 0.251,-0.215 0.286,-0.321 0.286,-0.358 0.25,-0.394 0.286,-0.465 0.251,-0.465 0.25,-0.5 0.215,-0.537 0.179,-0.608 0.178,-0.644 0.179,-0.643 0.143,-0.608 0.143,-0.608 0.108,-0.608 0.071,-0.537 0.072,-0.501 0.071,-0.465 0.108,-0.393 0.107,-0.501 0.143,-0.429 0.107,-0.322 0.108,-0.25 v 0 l 0.143,-0.143 v 0 l 0.178,-0.072 v 0 l 0.251,0.107"
                 style="fill:none;stroke:#000000;stroke-width:1.20560474;stroke-linecap:round;stroke-linejoin:round;stroke-miterlimit:4;stroke-dasharray:none;stroke-opacity:1"
                 id="path361" /></g></g></g></g></g><g
       id="g363"
       transform="matrix(1.2161679,0,0,1.2161679,-86.149259,-81.644018)"
       style="stroke:#000000;stroke-opacity:1;stroke-width:1.23338236;stroke-miterlimit:4;stroke-dasharray:none"><g
         id="g365"
         transform="rotate(5.0081232,388.0845,355.90103)"
         style="stroke:#000000;stroke-opacity:1;stroke-width:1.23338236;stroke-miterlimit:4;stroke-dasharray:none"><g
           id="g367"
           style="stroke:#000000;stroke-opacity:1;stroke-width:1.23338236;stroke-miterlimit:4;stroke-dasharray:none"><g
             id="g369"
             clip-path="url(#clipPath373)"
             style="stroke:#000000;stroke-opacity:1;stroke-width:1.23338236;stroke-miterlimit:4;stroke-dasharray:none"><g
               id="g375"
               style="stroke:#000000;stroke-opacity:1;stroke-width:1.23338236;stroke-miterlimit:4;stroke-dasharray:none"><path
                 d="m 390.345,362.982 v 0 0 l 0.035,0.287 v 0.214 l 0.036,0.179 v 0 0 0 l 0.036,0.215 v 0 0 0 0 0 0 l -0.036,0.214 -0.036,0.251 v 0 0 0 0 0 0 0 0 0 0 0 l -0.143,0.178 v 0 0 0 l -0.214,-0.178 -0.143,-0.144 v 0 0 l -0.179,-0.178 -0.179,-0.215 -0.107,-0.286 -0.179,-0.393 -0.179,-0.501 -0.179,-0.465 -0.143,-0.465 -0.179,-0.572 -0.214,-0.608 -0.215,-0.68 -0.179,-0.787 -0.214,-0.822 -0.215,-0.859 -0.215,-0.858 -0.214,-0.894 -0.179,-0.859 -0.143,-0.858 -0.179,-0.823 -0.143,-0.858 -0.143,-0.751 -0.072,-0.68 -0.107,-0.644 -0.071,-0.536 -0.072,-0.465 -0.036,-0.429 -0.071,-0.394 -0.072,-0.286 v -0.215 l -0.035,-0.178 -0.036,-0.179 v 0 0 0 0 0 0 0 0"
                 style="fill:none;stroke:#000000;stroke-width:1.23338236;stroke-linecap:round;stroke-linejoin:round;stroke-miterlimit:4;stroke-dasharray:none;stroke-opacity:1"
                 id="path377" /></g></g></g></g></g><g
       id="g379"
       transform="matrix(1.0567539,0,0,1.0567539,-27.401707,-25.896214)"
       style="stroke:#000000;stroke-opacity:1;stroke-width:1.41944121;stroke-miterlimit:4;stroke-dasharray:none"><g
         id="g381"
         style="stroke:#000000;stroke-opacity:1;stroke-width:1.41944121;stroke-miterlimit:4;stroke-dasharray:none"><g
           id="g383"
           style="stroke:#000000;stroke-opacity:1;stroke-width:1.41944121;stroke-miterlimit:4;stroke-dasharray:none"><g
             id="g385"
             clip-path="url(#clipPath389)"
             style="stroke:#000000;stroke-opacity:1;stroke-width:1.41944121;stroke-miterlimit:4;stroke-dasharray:none"><g
               id="g391"
               style="stroke:#000000;stroke-opacity:1;stroke-width:1.41944121;stroke-miterlimit:4;stroke-dasharray:none"><path
                 d="m 408.049,364.95 v 0 0 0 0 l 0.071,0.214 0.072,0.215 0.071,0.214 v 0 0 l 0.072,0.179 0.071,0.215 v 0 0 0 0.25 l -0.035,0.215 -0.036,0.179 v 0 0 0 l -0.143,0.143 v 0 0 0 h -0.251 -0.214 l -0.215,-0.036 -0.25,-0.072 -0.179,-0.143 -0.25,-0.107 -0.251,-0.036 -0.25,-0.035 -0.286,-0.108 -0.286,-0.143 -0.322,-0.143 -0.286,-0.143 -0.286,-0.179 -0.322,-0.179 -0.358,-0.214 -0.358,-0.179 -0.286,-0.179 -0.322,-0.214 -0.322,-0.287 -0.322,-0.25 -0.321,-0.25 -0.287,-0.251 -0.286,-0.322 -0.429,-0.429 -0.358,-0.357 -0.357,-0.394 -0.286,-0.358 -0.322,-0.393 -0.286,-0.465 -0.286,-0.393 -0.287,-0.322 -0.286,-0.358 -0.214,-0.465 -0.179,-0.429 -0.215,-0.358 -0.179,-0.393 -0.178,-0.501 -0.215,-0.429 -0.107,-0.358 -0.108,-0.393 -0.107,-0.465 -0.107,-0.465 -0.072,-0.465 -0.071,-0.501 -0.072,-0.501 -0.107,-0.465 -0.107,-0.465 -0.072,-0.465 -0.071,-0.429 -0.072,-0.429 v -0.465 -0.429 l 0.036,-0.394 0.071,-0.393 0.108,-0.393 0.107,-0.358 0.143,-0.322 0.143,-0.286 0.179,-0.286 0.179,-0.322 0.179,-0.322 0.214,-0.25 0.25,-0.215 0.179,-0.107 0.215,-0.179 0.286,-0.143 0.322,-0.143 0.215,-0.072 h 0.25 l 0.25,-0.036 0.322,-0.071 0.286,-0.036 0.286,0.036 h 0.287 l 0.286,0.036 0.322,0.035 0.321,0.036 0.358,0.072 0.358,0.071 0.357,0.072 0.358,0.071 0.322,0.108 0.286,0.107 0.25,0.107 0.251,0.072 0.214,0.107 0.215,0.143 0.215,0.143 0.178,0.143 0.179,0.143 0.143,0.179 0.179,0.251 0.179,0.214 0.143,0.286 0.107,0.322 0.036,0.215 0.036,0.214 0.036,0.358 0.035,0.358 -0.071,0.357 -0.072,0.322 -0.107,0.358 -0.107,0.322 -0.143,0.214 -0.143,0.251 -0.251,0.322 -0.25,0.322 -0.25,0.214 -0.215,0.179 -0.215,0.143 -0.25,0.143 -0.25,0.143 -0.179,0.108 -0.215,0.143 -0.25,0.035 v 0 h -0.215 v 0 0 0 0 0 0 0 0 0 0 l 0.179,0.143 0.286,0.108 0.286,0.107 0.286,0.143 0.287,0.072 0.357,0.035 0.358,0.036 h 0.358 l 0.429,0.036 0.465,0.036 0.465,0.035 0.465,-0.035 h 0.465 0.429 l 0.465,0.035 0.465,0.072"
                 style="fill:none;stroke:#000000;stroke-width:1.41944121;stroke-linecap:round;stroke-linejoin:round;stroke-miterlimit:4;stroke-dasharray:none;stroke-opacity:1"
                 id="path393" /></g></g></g></g></g><g
       id="g395"
       transform="matrix(1.2745642,0,0,1.2745642,-120.43607,-103.47119)"
       style="stroke:#000000;stroke-opacity:1;stroke-width:1.17687288;stroke-miterlimit:4;stroke-dasharray:none"><g
         id="g397"
         transform="rotate(8.1819237,420.94369,351.7175)"
         style="stroke:#000000;stroke-opacity:1;stroke-width:1.17687288;stroke-miterlimit:4;stroke-dasharray:none"><g
           id="g399"
           style="stroke:#000000;stroke-opacity:1;stroke-width:1.17687288;stroke-miterlimit:4;stroke-dasharray:none"><g
             id="g401"
             clip-path="url(#clipPath405)"
             style="stroke:#000000;stroke-opacity:1;stroke-width:1.17687288;stroke-miterlimit:4;stroke-dasharray:none"><g
               id="g407"
               style="stroke:#000000;stroke-opacity:1;stroke-width:1.17687288;stroke-miterlimit:4;stroke-dasharray:none"><path
                 d="m 419.029,361.23 v 0 0 0 0 0 l -0.072,0.215 v 0 0 0 0 0 l -0.179,-0.108 -0.214,-0.071 -0.179,-0.143 -0.179,-0.179 -0.179,-0.215 -0.179,-0.214 -0.178,-0.251 -0.179,-0.286 -0.215,-0.358 -0.179,-0.429 -0.286,-0.644 -0.25,-0.608 -0.215,-0.572 -0.143,-0.536 -0.143,-0.537 -0.143,-0.572 -0.143,-0.572 -0.107,-0.608 -0.036,-0.394 -0.036,-0.465 -0.036,-0.679 0.036,-0.644 0.036,-0.537 0.072,-0.5 0.107,-0.501 0.214,-0.501 0.143,-0.322 0.179,-0.322 0.215,-0.214 0.215,-0.143 0.25,-0.072 0.322,-0.036 0.357,-0.035 0.394,-0.036 0.393,0.071 0.394,0.108 0.429,0.143 0.429,0.143 0.501,0.214 0.429,0.251 0.429,0.357 0.465,0.322 0.429,0.358 0.43,0.393 0.429,0.394 0.429,0.393 0.501,0.573 0.5,0.572 0.394,0.536 0.357,0.501 0.322,0.465 0.286,0.465 0.215,0.501 0.143,0.536 0.143,0.572 0.107,0.537 0.072,0.608 0.072,0.644 0.035,0.644 0.036,0.608 v 0.572 0.501 l -0.036,0.429 -0.107,0.357 -0.143,0.358 -0.143,0.394 -0.215,0.357 -0.214,0.322 -0.286,0.25 -0.251,0.215 -0.286,0.143 -0.286,0.143 -0.322,0.107 -0.322,0.072 -0.25,-0.072 -0.286,-0.178 -0.322,-0.179 -0.358,-0.143 -0.536,-0.143 -0.537,-0.108 -0.536,-0.25 -0.501,-0.429 -0.322,-0.322 -0.286,-0.393 -0.322,-0.322 -0.322,-0.286 -0.393,-0.465 -0.322,-0.465 -0.251,-0.394 -0.178,-0.393 -0.108,-0.394 -0.035,-0.393 v -0.358"
                 style="fill:none;stroke:#000000;stroke-width:1.17687288;stroke-linecap:round;stroke-linejoin:round;stroke-miterlimit:4;stroke-dasharray:none;stroke-opacity:1"
                 id="path409" /></g></g></g></g></g><g
       id="g411"
       transform="matrix(1.2836394,0,0,1.2836394,-130.87088,-107.65022)"
       style="stroke:#000000;stroke-opacity:1;stroke-width:1.16855251;stroke-miterlimit:4;stroke-dasharray:none"><g
         id="g413"
         transform="rotate(4.675497,445.63988,371.35906)"
         style="stroke:#000000;stroke-opacity:1;stroke-width:1.16855251;stroke-miterlimit:4;stroke-dasharray:none"><g
           id="g415"
           style="stroke:#000000;stroke-opacity:1;stroke-width:1.16855251;stroke-miterlimit:4;stroke-dasharray:none"><g
             id="g417"
             clip-path="url(#clipPath421)"
             style="stroke:#000000;stroke-opacity:1;stroke-width:1.16855251;stroke-miterlimit:4;stroke-dasharray:none"><g
               id="g423"
               style="stroke:#000000;stroke-opacity:1;stroke-width:1.16855251;stroke-miterlimit:4;stroke-dasharray:none"><path
                 d="m 434.909,362.053 v 0 0 0 0 l -0.286,-0.108 -0.251,-0.179 -0.214,-0.286 -0.179,-0.25 -0.179,-0.215 -0.179,-0.25 -0.179,-0.322 -0.178,-0.358 -0.215,-0.393 -0.215,-0.429 -0.214,-0.465 -0.215,-0.501 -0.179,-0.536 -0.178,-0.537 -0.179,-0.572 -0.143,-0.572 -0.108,-0.537 -0.071,-0.572 -0.072,-0.608 -0.035,-0.573 v -0.536 l -0.036,-0.501 v -0.429 -0.393 -0.358 l 0.036,-0.286 0.035,-0.179 v 0 0 0 0 0 l 0.215,0.143 v 0 l 0.214,0.286 0.144,0.286 0.143,0.286 0.143,0.322 0.143,0.322 0.143,0.394 0.107,0.393 0.143,0.394 0.179,0.393 0.143,0.429 0.107,0.465 0.108,0.429 0.107,0.43 0.107,0.5 0.108,0.573 0.143,0.643 0.143,0.68 0.179,0.715 0.214,0.716 0.25,0.715 0.287,0.715 0.25,0.68 0.322,0.572 0.357,0.537 0.358,0.572 0.394,0.536 0.429,0.501 0.357,0.501 0.358,0.465 0.358,0.357 0.393,0.179 0.322,0.108 h 0.322 0.322 0.322 0.286 l 0.25,-0.072 v 0 l 0.286,-0.25 0.179,-0.322 0.179,-0.394 0.107,-0.393 0.108,-0.394 0.035,-0.393 v -0.429 l -0.035,-0.501 -0.036,-0.536 -0.107,-0.537 -0.143,-0.501 -0.215,-0.5 -0.286,-0.573 -0.322,-0.5 -0.322,-0.465 -0.358,-0.394 -0.357,-0.357 -0.358,-0.287 -0.322,-0.214 -0.322,-0.215 -0.322,-0.214 -0.286,-0.143 -0.286,-0.108 -0.25,-0.071 -0.251,-0.108 v 0 l -0.322,-0.071 -0.25,0.036 v 0 0 0 l -0.215,0.143 v 0 0 0.357 l 0.072,0.287 v 0 l 0.179,0.214 0.214,0.179 0.215,0.179 0.215,0.214 0.178,0.179 v 0 l 0.287,0.143 0.286,0.108 0.25,-0.036 0.215,-0.107 0.25,-0.108 0.179,-0.107 0.214,-0.179 0.251,-0.215 0.214,-0.286 0.215,-0.357 0.215,-0.394 0.214,-0.465 0.179,-0.465 0.179,-0.465 0.143,-0.465 0.107,-0.5 0.108,-0.501 0.143,-0.537 0.107,-0.5 0.107,-0.501 0.108,-0.465 0.107,-0.465 0.107,-0.393 0.107,-0.394 0.072,-0.357 0.143,-0.322 0.107,-0.322 0.108,-0.215 0.143,-0.143 0.143,-0.107 0.179,0.036"
                 style="fill:none;stroke:#000000;stroke-width:1.16855251;stroke-linecap:round;stroke-linejoin:round;stroke-miterlimit:4;stroke-dasharray:none;stroke-opacity:1"
                 id="path425" /></g></g></g></g></g><g
       id="g1586"
       transform="matrix(1.272341,0,0,1.272341,-128.52248,-101.8059)"
       style="stroke:#000000;stroke-opacity:1;stroke-width:1.17892926;stroke-miterlimit:4;stroke-dasharray:none"><g
         id="g427"
         style="stroke:#000000;stroke-opacity:1;stroke-width:1.17892926;stroke-miterlimit:4;stroke-dasharray:none"><g
           id="g429"
           style="stroke:#000000;stroke-opacity:1;stroke-width:1.17892926;stroke-miterlimit:4;stroke-dasharray:none"><g
             id="g431"
             style="stroke:#000000;stroke-opacity:1;stroke-width:1.17892926;stroke-miterlimit:4;stroke-dasharray:none"><g
               id="g433"
               clip-path="url(#clipPath437)"
               style="stroke:#000000;stroke-opacity:1;stroke-width:1.17892926;stroke-miterlimit:4;stroke-dasharray:none"><g
                 id="g439"
                 style="stroke:#000000;stroke-opacity:1;stroke-width:1.17892926;stroke-miterlimit:4;stroke-dasharray:none"><path
                   d="m 452.649,363.734 v 0 0 0 0 0 0 0 0 0 0 l 0.071,-0.179 v 0 0 0 0 l -0.143,-0.286 -0.143,-0.43 -0.143,-0.5 -0.143,-0.608 -0.107,-0.465 -0.179,-0.322 -0.179,-0.358 -0.215,-0.501 -0.25,-0.536 -0.286,-0.644 -0.322,-0.679 -0.286,-0.716 -0.322,-0.679 -0.322,-0.68 -0.322,-0.644 -0.286,-0.679 -0.286,-0.68 -0.25,-0.715 -0.251,-0.644 -0.143,-0.644 -0.179,-0.536 -0.143,-0.501 -0.107,-0.429 v -0.465 -0.358 l 0.072,-0.322 0.107,-0.143 0.107,-0.143 0.179,-0.179 0.215,-0.214 0.178,-0.108 0.286,-0.071 0.287,-0.072 0.322,-0.071 0.5,-0.036 0.501,-0.036 h 0.465 0.465 0.286 0.358 l 0.357,0.036 0.358,0.036 0.393,0.071 0.394,0.072 0.393,0.107 0.394,0.072 0.536,0.214 0.429,0.215 0.394,0.25 0.357,0.251 0.287,0.286 0.25,0.322"
                   style="fill:none;stroke:#000000;stroke-width:1.17892926;stroke-linecap:round;stroke-linejoin:round;stroke-miterlimit:4;stroke-dasharray:none;stroke-opacity:1"
                   id="path441" /></g></g></g></g></g><g
         id="g443"
         style="stroke:#000000;stroke-opacity:1;stroke-width:1.17892926;stroke-miterlimit:4;stroke-dasharray:none"><g
           id="g445"
           style="stroke:#000000;stroke-opacity:1;stroke-width:1.17892926;stroke-miterlimit:4;stroke-dasharray:none"><g
             id="g447"
             style="stroke:#000000;stroke-opacity:1;stroke-width:1.17892926;stroke-miterlimit:4;stroke-dasharray:none"><g
               id="g449"
               clip-path="url(#clipPath453)"
               style="stroke:#000000;stroke-opacity:1;stroke-width:1.17892926;stroke-miterlimit:4;stroke-dasharray:none"><g
                 id="g455"
                 style="stroke:#000000;stroke-opacity:1;stroke-width:1.17892926;stroke-miterlimit:4;stroke-dasharray:none"><path
                   d="m 450.825,354.542 v 0 0 0 0 0 0 0 l 0.214,0.214 0.215,0.215 0.286,0.179 0.322,0.143 0.393,0.143 0.429,0.143 0.465,0.143 0.501,0.143 0.501,0.143 0.501,0.107 0.465,0.108 0.429,0.071 0.393,0.072 0.429,0.035 0.394,0.072 0.393,0.071 0.358,0.144 0.358,0.143 0.286,0.143 0.286,0.143"
                   style="fill:none;stroke:#000000;stroke-width:1.17892926;stroke-linecap:round;stroke-linejoin:round;stroke-miterlimit:4;stroke-dasharray:none;stroke-opacity:1"
                   id="path457" /></g></g></g></g></g><g
         id="g459"
         style="stroke:#000000;stroke-opacity:1;stroke-width:1.17892926;stroke-miterlimit:4;stroke-dasharray:none"><g
           id="g461"
           style="stroke:#000000;stroke-opacity:1;stroke-width:1.17892926;stroke-miterlimit:4;stroke-dasharray:none"><g
             id="g463"
             style="stroke:#000000;stroke-opacity:1;stroke-width:1.17892926;stroke-miterlimit:4;stroke-dasharray:none"><g
               id="g465"
               clip-path="url(#clipPath469)"
               style="stroke:#000000;stroke-opacity:1;stroke-width:1.17892926;stroke-miterlimit:4;stroke-dasharray:none"><g
                 id="g471"
                 style="stroke:#000000;stroke-opacity:1;stroke-width:1.17892926;stroke-miterlimit:4;stroke-dasharray:none"><path
                   d="m 451.862,360.658 -0.251,0.465 -0.143,0.322 -0.143,0.321 -0.107,0.179 v 0 0 0 0 0 l 0.215,0.251 0.25,0.178 0.322,0.108 0.358,0.036 0.429,0.035 0.5,0.072 0.573,0.036 0.644,0.035 0.643,0.036 h 0.68 l 0.679,0.143 0.716,0.251 0.715,0.178 0.715,0.036 0.751,0.072 0.716,0.178"
                   style="fill:none;stroke:#000000;stroke-width:1.17892926;stroke-linecap:round;stroke-linejoin:round;stroke-miterlimit:4;stroke-dasharray:none;stroke-opacity:1"
                   id="path473" /></g></g></g></g></g></g><g
       id="g475"
       transform="matrix(1.1914154,0.15384095,-0.15384095,1.1914154,-40.251338,-145.17243)"
       style="stroke:#000000;stroke-opacity:1;stroke-width:1.24864041;stroke-miterlimit:4;stroke-dasharray:none"><g
         id="g477"
         style="stroke:#000000;stroke-opacity:1;stroke-width:1.24864041;stroke-miterlimit:4;stroke-dasharray:none"><g
           id="g479"
           style="stroke:#000000;stroke-opacity:1;stroke-width:1.24864041;stroke-miterlimit:4;stroke-dasharray:none"><g
             id="g481"
             clip-path="url(#clipPath485)"
             style="stroke:#000000;stroke-opacity:1;stroke-width:1.24864041;stroke-miterlimit:4;stroke-dasharray:none"><g
               id="g487"
               style="stroke:#000000;stroke-opacity:1;stroke-width:1.24864041;stroke-miterlimit:4;stroke-dasharray:none"><path
                 d="m 468.278,361.838 v 0 0 0 l -0.286,0.071 v 0 l -0.214,-0.143 -0.143,-0.214 v 0 0 0 0 0 0 0 l -0.179,-0.179 v 0 l -0.143,-0.322 -0.108,-0.358 -0.071,-0.393 -0.036,-0.358 -0.036,-0.286 v -0.286 -0.286 l -0.035,-0.429 v -0.537 -0.572 l 0.035,-0.572 v -0.608 -0.68 -0.679 l 0.072,-0.752 0.036,-0.751 0.035,-0.787 0.036,-0.751 0.072,-0.715 0.071,-0.644 0.108,-0.644 0.071,-0.5 0.107,-0.429 0.108,-0.358 0.143,-0.322 0.143,-0.215 0.179,-0.143 0.25,-0.143 0.215,-0.071 h 0.214 l 0.251,0.071 0.286,0.072 0.322,0.143 0.286,0.179 0.322,0.214 0.321,0.251 0.322,0.25 0.322,0.322 0.322,0.358 0.322,0.393 0.358,0.393 0.357,0.394 0.322,0.358 0.358,0.429 0.358,0.465 0.286,0.357 0.357,0.43 0.358,0.5 0.393,0.501 0.465,0.572 0.537,0.644 0.536,0.68 0.573,0.751 0.608,0.787 0.679,0.786 0.644,0.823 0.644,0.823 0.679,0.822 0.68,0.787 0.679,0.716 0.716,0.643 0.679,0.573 0.68,0.536 0.679,0.501 0.68,0.501"
                 style="fill:none;stroke:#000000;stroke-width:1.24864041;stroke-linecap:round;stroke-linejoin:round;stroke-miterlimit:4;stroke-dasharray:none;stroke-opacity:1"
                 id="path489" /></g></g></g></g></g></g></svg>
